<?xml version="1.0" encoding="UTF-8" standalone="no"?>
<!-- Created with Inkscape (http://www.inkscape.org/) -->

<svg
   xmlns:dc="http://purl.org/dc/elements/1.1/"
   xmlns:cc="http://creativecommons.org/ns#"
   xmlns:rdf="http://www.w3.org/1999/02/22-rdf-syntax-ns#"
   xmlns:svg="http://www.w3.org/2000/svg"
   xmlns="http://www.w3.org/2000/svg"
   xmlns:sodipodi="http://sodipodi.sourceforge.net/DTD/sodipodi-0.dtd"
   xmlns:inkscape="http://www.inkscape.org/namespaces/inkscape"
   width="210mm"
   height="297mm"
   viewBox="0 0 210 297"
   version="1.1"
   id="svg8"
   sodipodi:docname="dengrid.svg"
   inkscape:version="0.92.2 2405546, 2018-03-11">
  <sodipodi:namedview
     id="base"
     pagecolor="#ffffff"
     bordercolor="#666666"
     borderopacity="1.0"
     inkscape:pageopacity="0.0"
     inkscape:pageshadow="2"
     inkscape:zoom="0.49497475"
     inkscape:cx="-84.612713"
     inkscape:cy="451.04098"
     inkscape:document-units="mm"
     inkscape:current-layer="layer1"
     showgrid="false"
     inkscape:snap-global="false" />
  <defs
     id="defs2">
    <clipPath
       id="clipPath892"
       clipPathUnits="userSpaceOnUse">
      <path
         inkscape:connector-curvature="0"
         id="path894"
         d="M 130.16026,161.76162 C 129.39611,161.27565 129.24084,162.35496 128.82391,162.56342 128.66454,162.64311 128.44874,162.48374 128.28937,162.56342 127.17706,163.11958 128.57509,162.54497 128.0221,163.09796 127.95911,163.16096 127.81783,163.03497 127.75483,163.09796 127.69184,163.16096 127.81783,163.30224 127.75483,163.36523 127.69184,163.42823 127.55056,163.30224 127.48756,163.36523 127.42457,163.42823 127.55056,163.56951 127.48756,163.6325 127.36157,163.7585 127.07902,163.50651 126.95302,163.6325 126.89003,163.6955 126.99287,163.82009 126.95302,163.89977 126.82152,164.16277 126.01545,164.70585 125.88395,164.96885 125.8441,165.04854 125.92379,165.15644 125.88395,165.23612 125.58847,165.82707 125.71807,165.31906 125.34941,165.50339 125.23672,165.55974 125.19483,165.71432 125.08214,165.77066 125.00245,165.8105 124.87786,165.70766 124.81487,165.77066 124.75187,165.83366 124.87786,165.97493 124.81487,166.03793 124.674,166.17879 124.46932,166.2422 124.28033,166.3052 124.19581,166.33337 124.07606,166.2422 124.01306,166.3052 123.95006,166.3682 124.07606,166.50947 124.01306,166.57247 123.95006,166.63546 123.82547,166.53263 123.74579,166.57247 123.52041,166.68516 123.43663,166.99432 123.21125,167.10701 123.13157,167.14685 123.00698,167.04401 122.94398,167.10701 122.88099,167.17 123.00698,167.31128 122.94398,167.37428 122.88099,167.43727 122.73971,167.31128 122.67671,167.37428 122.61371,167.43727 122.73971,167.57855 122.67671,167.64155 122.61371,167.70454 122.47244,167.57855 122.40944,167.64155 122.34645,167.70454 122.44928,167.82913 122.40944,167.90882 122.24908,168.22954 121.768,168.3899 121.60763,168.71062 121.52649,168.87292 121.68878,170.15195 121.60763,170.31424 121.55129,170.42693 121.39671,170.46882 121.34037,170.58151 121.30052,170.6612 121.34037,170.75969 121.34037,170.84878 121.34037,170.93787 121.34037,171.02696 121.34037,171.11605 121.34037,171.65059 121.34037,172.18513 121.34037,172.71967 121.34037,174.1451 121.34037,175.57054 121.34037,176.99598 121.34037,177.0608 121.34896,177.78919 121.34037,177.79779 121.27737,177.86079 121.13609,177.73479 121.07309,177.79779 120.97928,177.8916 121.1654,178.94953 121.07309,179.13414 121.01675,179.24683 120.86217,179.28872 120.80582,179.40141 120.76598,179.48109 120.84567,179.58899 120.80582,179.66868 120.74948,179.78137 120.62765,179.84685 120.53856,179.93594 120.44947,180.02504 120.36037,180.11413 120.27129,180.20321 120.13058,180.34392 119.61222,180.93365 119.46948,181.00502 119.38979,181.04487 119.2652,180.94203 119.20221,181.00502 118.5474,182.31463 119.28964,181.22857 118.66767,181.53956 118.55498,181.59591 118.48949,181.71774 118.4004,181.80683 118.19039,182.01684 117.23429,183.05806 117.06405,183.14318 116.90636,183.22203 116.44608,183.0819 116.26224,183.14318 116.07325,183.20618 115.91669,183.34745 115.7277,183.41045 115.66902,183.43001 114.69836,183.43032 114.65863,183.41045 114.54593,183.3541 114.50405,183.19952 114.39136,183.14318 114.31167,183.10334 114.21318,183.14318 114.12409,183.14318 113.94591,183.14318 113.76241,183.18639 113.58955,183.14318 113.39629,183.09486 113.244,182.9389 113.05501,182.87591 112.97049,182.84774 112.86742,182.91575 112.78774,182.87591 112.67505,182.81956 112.63316,182.66498 112.52047,182.60864 112.44078,182.5688 112.33289,182.64848 112.2532,182.60864 112.14051,182.5523 112.09862,182.39772 111.98593,182.34137 111.55964,182.12822 111.87769,182.55452 111.45139,182.34137 111.3387,182.28502 111.29681,182.13045 111.18412,182.0741 111.10444,182.03426 111.00137,182.10227 110.91685,182.0741 109.40259,181.31697 111.31527,182.17371 109.84778,181.80683 109.65451,181.75852 109.50222,181.60256 109.31324,181.53956 109.1442,181.48322 108.94773,181.59591 108.7787,181.53956 108.58971,181.47657 108.43315,181.33529 108.24416,181.27229 108.07512,181.21595 107.83561,181.39828 107.70962,181.27229 107.64662,181.2093 107.77261,181.06802 107.70962,181.00502 107.64662,180.94203 107.52203,181.04487 107.44235,181.00502 107.21697,180.89233 107.13319,180.58317 106.90781,180.47048 106.82813,180.43064 106.72963,180.47048 106.64054,180.47048 106.106,180.47048 105.57146,180.47048 105.03692,180.47048 104.94783,180.47048 104.83265,180.40749 104.76965,180.47048 104.70666,180.53348 104.83265,180.67476 104.76965,180.73775 104.71501,180.79239 104.07382,180.68477 103.96784,180.73775 103.85515,180.7941 103.81327,180.94868 103.70058,181.00502 103.54121,181.08471 103.3254,180.92534 103.16604,181.00502 103.05334,181.06137 103.01146,181.21595 102.89877,181.27229 102.81908,181.31214 102.71118,181.23245 102.6315,181.27229 102.51881,181.32864 102.46906,181.46967 102.36423,181.53956 102.22963,182.1284 101.8144,181.68084 101.56242,181.80683 101.44973,181.86318 101.38424,181.98501 101.29515,182.0741 101.20606,182.16319 101.11697,182.25228 101.02788,182.34137 100.41508,182.95418 101.19692,182.22868 100.22607,182.87591 100.12124,182.9458 100.07149,183.08683 99.958803,183.14318 99.879118,183.18302 99.771216,183.10334 99.691534,183.14318 98.468344,183.75477 100.82567,183.0324 98.889725,183.67772 98.805206,183.70589 98.685448,183.61472 98.622456,183.67772 98.559456,183.74071 98.685448,183.88199 98.622456,183.94499 98.496464,184.07098 98.247282,183.8653 98.087913,183.94499 97.975227,184.00133 97.933338,184.15591 97.820644,184.21226 97.740962,184.2521 97.63306,184.17242 97.553378,184.21226 97.440684,184.2686 97.398795,184.42318 97.286109,184.47953 97.12674,184.55921 96.910938,184.39984 96.751566,184.47953 96.638877,184.53587 96.57339,184.65771 96.4843,184.7468 96.217031,184.92498 95.969796,185.13768 95.682488,185.28133 95.602806,185.32118 95.49974,185.25316 95.415222,185.28133 95.22623,185.34433 95.069668,185.48561 94.880679,185.5486 94.796163,185.57678 94.693097,185.50876 94.61341,185.5486 94.500721,185.60495 94.465669,185.77603 94.346141,185.81588 94.105598,185.89605 93.784878,185.73569 93.544332,185.81588 93.355348,185.87887 93.198783,186.02015 93.009797,186.08314 92.859003,186.13341 92.38361,186.08314 92.207985,186.08314 91.762538,186.08314 91.317088,186.08314 90.871638,186.08314 90.630732,186.08314 89.703508,186.02707 89.535291,186.08314 89.346302,186.14614 89.18974,186.28742 89.000751,186.35041 88.849957,186.40068 88.374569,186.35041 88.198944,186.35041 87.664404,186.35041 87.129866,186.35041 86.595326,186.35041 86.409427,186.35041 85.355634,186.39874 85.258979,186.35041 84.887996,186.16492 84.99171,185.87486 84.99171,185.5486 84.99171,185.3077 85.047783,184.38048 84.99171,184.21226 84.928713,184.02327 84.787436,183.86671 84.724441,183.67772 84.639907,183.42412 84.793455,182.8847 84.724441,182.60864 84.785774,182.07193 84.306262,181.73773 84.189901,181.27229 84.125078,181.013 84.189901,180.73775 84.189901,180.47048 84.189901,178.5996 84.189901,176.72871 84.189901,174.85782 84.189901,174.32329 84.189901,173.78875 84.189901,173.25421 84.189901,173.07858 84.139638,172.60319 84.189901,172.4524 84.252898,172.26341 84.394175,172.10685 84.45717,171.91786 84.507435,171.76707 84.45717,171.29168 84.45717,171.11605 84.45717,170.6706 84.45717,170.22515 84.45717,169.7797 84.45717,169.56454 84.40125,168.87838 84.45717,168.71062 84.520167,168.52164 84.661444,168.36507 84.724441,168.17609 84.750897,168.09671 84.751868,166.8946 84.724441,166.83974 84.668093,166.72705 84.513515,166.68516 84.45717,166.57247 84.417329,166.49278 84.497013,166.38488 84.45717,166.3052 84.400824,166.19251 84.246244,166.15062 84.189901,166.03793 84.15006,165.95825 84.229742,165.85034 84.189901,165.77066 84.133555,165.65797 83.978975,165.61608 83.922632,165.50339 83.882788,165.42371 83.962473,165.31581 83.922632,165.23612 83.762271,164.9154 83.281184,164.75504 83.120823,164.43431 83.080982,164.35463 83.160666,164.24673 83.120823,164.16704 82.564666,163.05473 83.139275,164.45276 82.586285,163.89977 81.833723,163.88318 82.518226,163.29717 82.319011,163.09796 81.766024,162.54497 82.340633,163.94301 81.784476,162.8307 81.697833,162.65741 81.868407,161.47888 81.784476,161.22708 81.695385,161.0489 81.606295,160.87072 81.517207,160.69254 81.517207,160.51436 81.573553,160.32704 81.517207,160.158 81.477363,160.03847 81.289779,160.01026 81.249933,159.89073 81.19359,159.72169 81.249933,159.53437 81.249933,159.35619 81.249933,159.17801 81.19359,158.99069 81.249933,158.82165 81.289779,158.70213 81.477363,158.67391 81.517207,158.55438 81.557953,158.43214 81.457742,157.60423 81.517207,157.48531 81.573553,157.37261 81.72813,157.33073 81.784476,157.21803 81.824317,157.13835 81.756303,157.03528 81.784476,156.95077 81.873566,156.77259 81.962654,156.59441 82.051745,156.41623 82.051745,156.32714 82.023572,156.23347 82.051745,156.14896 82.114742,155.95997 82.270698,155.80768 82.319011,155.61442 82.362228,155.44156 82.262668,155.24891 82.319011,155.07988 82.358857,154.96035 82.529939,154.9253 82.586285,154.81261 82.626126,154.73292 82.558112,154.62986 82.586285,154.54534 83.231596,152.60939 82.509228,154.96672 83.120823,153.74353 83.160666,153.66385 83.080982,153.55595 83.120823,153.47626 83.156303,153.4053 83.851668,152.70993 83.922632,152.67445 84.107245,152.58215 85.165163,152.76827 85.258979,152.67445 85.321976,152.61146 85.195984,152.47018 85.258979,152.40718 85.265649,152.40051 86.494919,152.40718 86.595326,152.40718 86.749324,152.40718 87.834261,152.35848 87.931675,152.40718 88.044364,152.46353 88.086253,152.61811 88.198944,152.67445 88.278629,152.7143 88.37712,152.67445 88.466213,152.67445 88.555301,152.67445 88.693641,152.75414 88.733482,152.67445 89.08805,151.96532 88.608757,152.30028 88.466213,151.87264 88.409867,151.70361 88.522559,151.50714 88.466213,151.33811 88.426372,151.21858 88.25529,151.18353 88.198944,151.07084 88.159103,150.99115 88.238785,150.88325 88.198944,150.80357 88.142596,150.69088 87.988021,150.64899 87.931675,150.5363 87.891832,150.45661 87.971516,150.34871 87.931675,150.26903 87.875327,150.15634 87.720747,150.11445 87.664404,150.00176 87.624563,149.92207 87.686012,149.82092 87.664404,149.73449 87.368962,148.55272 87.397135,149.30783 87.397135,148.66541 87.397135,148.54504 87.437804,147.94494 87.397135,147.8636 87.340789,147.75091 87.186212,147.70902 87.129866,147.59633 87.095314,147.52723 87.129866,146.18216 87.129866,145.99272 87.129866,145.90363 87.129866,145.81453 87.129866,145.72544 87.129866,145.63636 87.169707,145.53786 87.129866,145.45818 87.073518,145.34548 86.902438,145.31043 86.862597,145.19091 86.806249,145.02187 86.862597,144.83455 86.862597,144.65637 86.862597,144.56728 86.822754,144.46878 86.862597,144.3891 86.918943,144.27641 87.090025,144.24135 87.129866,144.12183 87.186212,143.95279 87.050179,143.74666 87.129866,143.58729 87.169707,143.5076 87.357294,143.66697 87.397135,143.58729 87.476817,143.42792 87.340789,143.22179 87.397135,143.05275 87.436976,142.93322 87.594517,142.89031 87.664404,142.78548 87.774907,142.61973 87.821172,142.41669 87.931675,142.25094 88.001562,142.14611 88.142596,142.09636 88.198944,141.98367 88.27779,141.82598 88.137664,141.3657 88.198944,141.18186 88.84426,139.24592 88.121887,141.60324 88.733482,140.38005 88.813164,140.22069 88.6538,140.00489 88.733482,139.84552 88.789825,139.73283 88.930864,139.68308 89.000751,139.57825 89.900882,138.22805 89.002817,139.57205 89.268022,138.77644 89.331017,138.58745 89.472294,138.43089 89.535291,138.2419 89.665744,137.85054 89.281172,137.43352 89.80256,137.17282 89.882242,137.13298 89.980741,137.17282 90.069829,137.17282 90.158922,137.17282 90.24801,137.17282 90.3371,137.17282 90.78255,137.17282 91.228,137.17282 91.673447,137.17282 91.762538,137.17282 91.851628,137.17282 91.940719,137.17282 92.029804,137.17282 92.14499,137.23582 92.207985,137.17282 92.348852,137.03196 92.334392,136.77914 92.475254,136.63828 92.538254,136.57528 92.679528,136.70128 92.742525,136.63828 92.80552,136.57528 92.679528,136.43401 92.742525,136.37101 92.751119,136.36242 93.479514,136.37101 93.544332,136.37101 93.730231,136.37101 94.784029,136.32268 94.880679,136.37101 95.201404,136.53137 95.361768,137.01246 95.682488,137.17282 95.762175,137.21266 95.870075,137.13298 95.949757,137.17282 96.270482,137.33318 96.430846,137.81427 96.751566,137.97463 96.831253,138.01447 96.955843,137.91163 97.018835,137.97463 97.081835,138.03763 96.978994,138.16221 97.018835,138.2419 97.075183,138.35459 97.197016,138.42008 97.286109,138.50917 97.375197,138.59826 97.440684,138.72009 97.553378,138.77644 97.63306,138.81628 97.757652,138.71344 97.820644,138.77644 97.883644,138.83943 97.780803,138.96402 97.820644,139.04371 97.87699,139.1564 97.998825,139.22189 98.087913,139.31098 98.177006,139.40007 98.266094,139.48916 98.355187,139.57825 98.444275,139.66734 98.509762,139.78917 98.622456,139.84552 98.702138,139.88536 98.82673,139.78252 98.889725,139.84552 98.952722,139.90851 98.82673,140.04979 98.889725,140.11279 98.952722,140.17578 99.093999,140.04979 99.156991,140.11279 99.219991,140.17578 99.093999,140.31706 99.156991,140.38005 99.219991,140.44305 99.361268,140.31706 99.424265,140.38005 99.565124,140.52092 99.55067,140.77373 99.691534,140.91459 99.754526,140.97759 99.869712,140.91459 99.958803,140.91459 100.04789,140.91459 100.13698,140.91459 100.22607,140.91459 100.36583,140.91459 101.22487,140.94973 101.29515,140.91459 101.40784,140.85825 101.44973,140.70367 101.56242,140.64733 101.6421,140.60748 101.75,140.68717 101.82969,140.64733 101.94238,140.59098 102.00787,140.46914 102.09696,140.38005 102.30572,140.1713 102.66814,139.732 102.89877,139.57825 103.03336,138.98941 103.44859,139.43697 103.70058,139.31098 104.81289,138.75482 103.41486,139.32943 103.96784,138.77644 103.9786,138.76568 104.93877,138.77644 105.03692,138.77644 105.66055,138.77644 106.28418,138.77644 106.90781,138.77644 107.02818,138.77644 107.62828,138.73577 107.70962,138.77644 107.82231,138.83278 107.8642,138.98736 107.97689,139.04371 108.05657,139.08355 108.16447,139.00387 108.24416,139.04371 108.35685,139.10005 108.39874,139.25463 108.51143,139.31098 108.6708,139.39066 108.91997,139.18498 109.04597,139.31098 109.10896,139.37397 108.98297,139.51525 109.04597,139.57825 109.10896,139.64124 109.23355,139.5384 109.31324,139.57825 109.53862,139.69094 109.62239,140.00009 109.84778,140.11279 109.92746,140.15263 110.03536,140.07294 110.11504,140.11279 110.22774,140.16913 110.26962,140.32371 110.38231,140.38005 110.462,140.4199 110.5699,140.34021 110.64958,140.38005 110.91258,140.51155 111.45566,141.31763 111.71866,141.44913 111.79834,141.48898 111.90625,141.40929 111.98593,141.44913 112.09862,141.50548 112.14051,141.66006 112.2532,141.7164 112.33289,141.75624 112.45747,141.65341 112.52047,141.7164 112.58347,141.7794 112.45747,141.92068 112.52047,141.98367 112.58347,142.04667 112.72474,141.92068 112.78774,141.98367 112.85074,142.04667 112.72474,142.18795 112.78774,142.25094 113.34073,142.80393 112.76612,141.4059 113.32228,142.51821 113.42919,142.73203 113.21537,143.1062 113.32228,143.32002 113.37862,143.43271 113.5332,143.4746 113.58955,143.58729 113.62939,143.66697 113.54971,143.77488 113.58955,143.85456 113.64589,143.96725 113.80047,144.00914 113.85682,144.12183 113.9365,144.2812 113.73082,144.53037 113.85682,144.65637 113.91981,144.71936 114.06109,144.59337 114.12409,144.65637 114.18708,144.71936 114.12409,144.83455 114.12409,144.92364 114.12409,145.01273 114.21318,145.19091 114.12409,145.19091 114.035,145.19091 114.035,144.92364 114.12409,144.92364 114.21318,144.92364 114.08424,145.11122 114.12409,145.19091 114.18043,145.3036 114.33501,145.34548 114.39136,145.45818 114.47104,145.61754 114.31167,145.83335 114.39136,145.99272 114.4477,146.1054 114.60228,146.14729 114.65863,146.25998 114.69847,146.33967 114.65863,146.43816 114.65863,146.52725 114.74772,146.61634 114.86955,146.68183 114.92589,146.79452 114.96574,146.87421 114.88605,146.98211 114.92589,147.06179 115.08626,147.38252 115.56734,147.54288 115.7277,147.8636 115.76755,147.94329 115.68786,148.05119 115.7277,148.13087 115.76319,148.20183 116.45855,148.8972 116.52951,148.93268 116.68721,149.01153 117.14748,148.8714 117.33132,148.93268 117.7093,149.05867 118.02242,149.34123 118.4004,149.46722 118.48492,149.49539 118.57858,149.46722 118.66767,149.46722 118.93494,149.46722 119.20221,149.46722 119.46948,149.46722 120.09311,149.46722 120.71673,149.46722 121.34037,149.46722 121.96716,149.46722 121.21437,149.40422 121.8749,149.73449 121.94401,149.76904 123.28908,149.73449 123.47852,149.73449 123.92397,149.73449 124.36942,149.73449 124.81487,149.73449 125.08214,149.73449 125.36312,149.64997 125.61668,149.73449 125.7362,149.77433 125.77125,149.94541 125.88395,150.00176 126.09776,150.10867 126.47194,149.89485 126.68576,150.00176 126.79844,150.0581 126.84033,150.21268 126.95302,150.26903 127.03271,150.30887 127.14061,150.22918 127.22029,150.26903 127.33298,150.32537 127.37487,150.47995 127.48756,150.5363 127.56725,150.57614 127.67515,150.49646 127.75483,150.5363 127.89758,150.60767 128.41593,151.1974 128.55664,151.33811 128.64573,151.4272 128.73482,151.51628 128.82391,151.60537 128.913,151.69447 129.03483,151.75996 129.09118,151.87264 129.17086,152.03201 128.96519,152.28119 129.09118,152.40718 129.15418,152.47018 129.29545,152.34419 129.35845,152.40718 129.48444,152.53318 129.23246,152.81573 129.35845,152.94172 129.42145,153.00472 129.56272,152.87873 129.62572,152.94172 129.6672,152.9832 129.59105,153.63953 129.62572,153.74353 129.68872,153.93252 129.82999,154.08908 129.89299,154.27807 129.94934,154.44711 129.81331,154.65324 129.89299,154.81261 129.94934,154.9253 130.10391,154.96719 130.16026,155.07988 130.24457,155.24849 130.07595,156.24761 130.16026,156.41623 130.2166,156.52892 130.37118,156.57081 130.42753,156.6835 130.46737,156.76318 130.36453,156.88777 130.42753,156.95077 130.49052,157.01376 130.6318,156.88777 130.6948,156.95077 130.70339,156.95936 130.6948,157.68775 130.6948,157.75257 130.6948,158.46529 130.6948,159.17801 130.6948,159.89073 130.6948,160.04175 130.74275,160.57265 130.6948,160.69254 130.54683,161.06246 130.33844,161.40526 130.16026,161.76162 Z"
         style="fill:none;stroke:#000000;stroke-width:0.26458332px;stroke-linecap:butt;stroke-linejoin:miter;stroke-opacity:1" />
    </clipPath>
  </defs>
  <metadata
     id="metadata5">
    <rdf:RDF>
      <cc:Work
         rdf:about="">
        <dc:format>image/svg+xml</dc:format>
        <dc:type
           rdf:resource="http://purl.org/dc/dcmitype/StillImage" />
      </cc:Work>
    </rdf:RDF>
  </metadata>
  <g
     id="layer1"
     inkscape:groupmode="layer"
     inkscape:label="Layer 1">
    <path
       inkscape:connector-curvature="0"
       d="M 32.188005,63.276992 C 32.433465,63.453682 33.591165,64.798292 33.591165,64.947422 M 30.049855,63.945172 C 30.157225,65.157542 30.585765,66.110912 31.118925,66.818312 M 30.949835,63.084562 C 33.353235,60.944412 30.681775,59.324682 29.192455,59.767212 27.684185,61.422922 28.452285,64.079772 30.949835,63.084562 Z M 36.263865,60.337022 C 36.271965,59.298212 33.319045,55.443792 31.360995,56.759972 31.453515,57.365302 34.102515,59.226422 34.459805,62.341552 M 26.842615,66.951952 C 25.196926,66.284072 23.743041,62.679662 24.483886,61.299302 26.453295,60.096902 27.550145,65.194332 28.980775,65.081062 M 29.515315,70.359642 C 29.879175,69.484872 33.418975,72.807432 35.796145,71.295082 38.361875,70.387402 36.182655,63.398202 37.332945,60.871562 V 60.871562 M 34.660255,75.036852 C 33.440695,73.806202 32.802395,72.482482 31.792105,71.815082 28.434575,68.766602 25.471118,71.057002 24.882406,70.488902 24.724208,68.593702 25.496375,67.560162 26.498925,67.369022 28.029455,66.293502 31.576175,68.373542 33.694625,67.522392 34.561445,65.785872 34.577185,60.196592 37.999905,59.804892 37.300915,61.816912 38.722115,68.652952 39.070195,70.626912 M 39.191965,81.678332 C 36.690815,78.786592 32.868995,77.696202 30.975145,76.913912 M 44.916385,79.317942 C 43.909085,75.371582 43.968045,66.709022 43.968075,66.708552 M 42.430455,81.715502 C 42.015395,80.222342 40.351185,78.078132 39.810335,77.717102 31.912095,72.265052 21.590383,84.167572 14.405195,83.877982 13.138261,83.826912 12.53058,83.872292 12.359819,81.591362 8.8505669,76.501292 16.300614,62.165432 26.439435,67.417262 21.672521,65.111602 18.943263,65.716882 15.8561,65.810862 14.335975,65.100122 10.688017,62.602812 8.7690449,59.668752 10.387271,58.365692 17.05141,51.574153 24.927529,61.369632 16.880847,55.646082 12.286794,49.486273 16.612053,40.533703 20.336528,40.433693 29.411795,40.676793 32.109075,55.700002 26.622675,43.390433 33.108185,44.578503 35.888835,42.187353 41.540705,50.633063 37.990225,50.428693 36.644795,57.826122 42.048985,46.827933 50.958365,52.288173 54.740405,56.597692 47.650855,64.658522 37.880355,68.126612 41.416745,77.197392 V 77.197392"
       style="fill:none;stroke:#000000;stroke-width:0.26458332px;stroke-linecap:butt;stroke-linejoin:miter;stroke-opacity:1"
       id="path1047" />
    <path
       inkscape:connector-curvature="0"
       d="M 73.156006,27.027394 C 73.401466,27.204084 74.559166,28.548694 74.559166,28.697824 M 71.017856,27.695574 C 71.125226,28.907944 71.553766,29.861314 72.086926,30.568714 M 71.917836,26.834964 C 74.321236,24.694814 71.649776,23.075084 70.160456,23.517614 68.652186,25.173324 69.420286,27.830174 71.917836,26.834964 Z M 77.231866,24.087424 C 77.239967,23.048614 74.287046,19.194194 72.328996,20.510374 72.421516,21.115704 75.070516,22.976824 75.427806,26.091954 M 67.810616,30.702354 C 66.164927,30.034474 64.711042,26.430064 65.451887,25.049704 67.421296,23.847304 68.518146,28.944734 69.948776,28.831464 M 70.483316,34.110046 C 70.847176,33.235275 74.386976,36.557836 76.764146,35.045485 79.329877,34.137806 77.150657,27.148604 78.300946,24.621964 V 24.621964 M 75.628256,38.787255 C 74.408696,37.556606 73.770396,36.232885 72.760106,35.565484 69.402576,32.517004 66.439119,34.807405 65.850407,34.239305 65.692209,32.344104 66.464376,31.310565 67.466926,31.119425 68.997456,30.043904 72.544176,32.123945 74.662626,31.272793 75.529446,29.536274 75.545186,23.946994 78.967907,23.555294 78.268916,25.567314 79.690117,32.403355 80.038197,34.377315 M 80.159967,45.428735 C 77.658816,42.536996 73.836996,41.446606 71.943146,40.664315 M 85.884387,43.068345 C 84.877087,39.121984 84.936047,30.459424 84.936077,30.458954 M 83.398457,45.465907 C 82.983397,43.972747 81.319187,41.828534 80.778337,41.467505 72.880096,36.015456 62.558384,47.917975 55.373196,47.628386 54.106262,47.577316 53.498581,47.622695 53.32782,45.341764 49.818568,40.251694 57.268615,25.915834 67.407436,31.167664 62.640522,28.862004 59.911264,29.467284 56.824101,29.561264 55.303976,28.850524 51.656018,26.353214 49.737046,23.419154 51.355272,22.116094 58.019411,15.324554 65.89553,25.120034 57.848848,19.396484 53.254795,13.236674 57.580054,4.2841044 61.304529,4.1840944 70.379796,4.4271944 73.077076,19.450404 67.590676,7.1408344 74.076186,8.3289044 76.856837,5.9377544 82.508707,14.383464 78.958227,14.179094 77.612797,21.576524 83.016987,10.578334 91.926363,16.038574 95.708403,20.348094 88.618857,28.408924 78.848357,31.877014 82.384747,40.947794 V 40.947794"
       style="fill:none;stroke:#000000;stroke-width:0.26458332px;stroke-linecap:butt;stroke-linejoin:miter;stroke-opacity:1"
       id="path1047-3" />
    <path
       inkscape:transform-center-y="-5.6696704"
       inkscape:transform-center-x="8.8823339"
       inkscape:connector-curvature="0"
       d="M 85.32683,71.779774 C 85.57229,71.956464 86.72999,73.301074 86.72999,73.450204 M 83.18868,72.447954 C 83.29605,73.660324 83.72459,74.613694 84.25775,75.321094 M 84.08866,71.587344 C 86.49206,69.447194 83.8206,67.827464 82.33128,68.269994 80.82301,69.925704 81.59111,72.582554 84.08866,71.587344 Z M 89.40269,68.839804 C 89.41079,67.800994 86.45787,63.946574 84.49982,65.262754 84.59234,65.868084 87.24134,67.729204 87.59863,70.844334 M 79.98144,75.454734 C 78.33575,74.786854 76.88187,71.182444 77.62271,69.802084 79.59212,68.599684 80.68897,73.697114 82.1196,73.583844 M 82.65414,78.86243 C 83.018,77.98765 86.5578,81.31022 88.93497,79.79786 91.5007,78.89019 89.32148,71.900984 90.47177,69.374344 V 69.374344 M 87.79908,83.53963 C 86.57952,82.30899 85.94122,80.98526 84.93093,80.31786 81.5734,77.26938 78.60994,79.55978 78.02123,78.99168 77.86303,77.096484 78.6352,76.062945 79.63775,75.871805 81.16828,74.796284 84.715,76.876325 86.83345,76.025173 87.70027,74.288654 87.71601,68.699374 91.13873,68.307674 90.43974,70.319694 91.86094,77.15574 92.20902,79.12969 M 92.33079,90.18111 C 89.82964,87.28938 86.00782,86.19899 84.11397,85.41669 M 98.05521,87.82072 C 97.04791,83.87436 97.10687,75.211804 97.1069,75.211334 M 95.56928,90.21829 C 95.15422,88.72513 93.49001,86.58091 92.94916,86.21988 85.05092,80.76784 74.72921,92.67035 67.544023,92.38077 66.277093,92.3297 65.669413,92.37507 65.498653,90.09414 61.989397,85.00407 69.439443,70.668214 79.57826,75.920044 74.81135,73.614384 72.082093,74.219664 68.994933,74.313644 67.474803,73.602904 63.826843,71.105594 61.907877,68.171534 63.526103,66.868474 70.190243,60.076934 78.06636,69.872414 70.019673,64.148864 65.425623,57.989055 69.750883,49.036484 73.47535,48.936474 82.55062,49.179574 85.2479,64.202784 79.7615,51.893214 86.24701,53.081284 89.02766,50.690134 94.67953,59.135844 91.12905,58.931474 89.78362,66.328904 95.18781,55.330714 104.09719,60.790954 107.87923,65.100474 100.78968,73.161304 91.01918,76.629394 94.55557,85.70017 V 85.70017"
       style="fill:none;stroke:#000000;stroke-width:0.26458332px;stroke-linecap:butt;stroke-linejoin:miter;stroke-opacity:1"
       id="path1047-6" />
    <path
       inkscape:connector-curvature="0"
       d="M 125.54351,32.923823 C 125.78897,33.100512 126.94667,34.445123 126.94667,34.594253 M 123.40536,33.592002 C 123.51273,34.804372 123.94127,35.757742 124.47443,36.465142 M 124.30534,32.731392 C 126.70874,30.591242 124.03728,28.971512 122.54796,29.414042 121.03969,31.069753 121.80779,33.726603 124.30534,32.731392 Z M 129.61937,29.983853 C 129.62747,28.945043 126.67455,25.090622 124.7165,26.406803 124.80902,27.012132 127.45802,28.873252 127.81531,31.988382 M 120.19812,36.598783 C 118.55243,35.930902 117.09854,32.326492 117.83939,30.946133 119.8088,29.743733 120.90565,34.841163 122.33628,34.727893 M 122.87082,40.006474 C 123.23468,39.131703 126.77448,42.454264 129.15165,40.941913 131.71738,40.034234 129.53816,33.045032 130.68845,30.518393 V 30.518393 M 128.01576,44.683683 C 126.7962,43.453034 126.1579,42.129313 125.14761,41.461912 121.79008,38.413433 118.82662,40.703833 118.23791,40.135733 118.07971,38.240533 118.85188,37.206994 119.85443,37.015854 121.38496,35.940332 124.93168,38.020374 127.05013,37.169222 127.91695,35.432703 127.93269,29.843423 131.35541,29.451723 130.65642,31.463743 132.07762,38.299784 132.4257,40.273743 M 132.54747,51.325163 C 130.04632,48.433424 126.2245,47.343034 124.33065,46.560743 M 138.27189,48.964773 C 137.26459,45.018412 137.32355,36.355853 137.32358,36.355382 M 135.78596,51.362335 C 135.3709,49.869175 133.70669,47.724962 133.16584,47.363933 125.2676,41.911884 114.94588,53.814403 107.7607,53.524814 106.49376,53.473744 105.88608,53.519123 105.71532,51.238192 102.20607,46.148122 109.65612,31.812263 119.79494,37.064093 115.02802,34.758433 112.29876,35.363712 109.2116,35.457692 107.69148,34.746953 104.04352,32.249643 102.12455,29.315582 103.74277,28.012523 110.40691,21.220982 118.28303,31.016463 110.23635,25.292913 105.6423,19.133102 109.96755,10.180533 113.69203,10.080523 122.7673,10.323623 125.46458,25.346832 119.97818,13.037263 126.46369,14.225333 129.24434,11.834183 134.89621,20.279892 131.34573,20.075522 130.0003,27.472952 135.40449,16.474762 144.31386,21.935002 148.0959,26.244522 141.00636,34.305352 131.23586,37.773443 134.77225,46.844222 V 46.844222"
       style="fill:none;stroke:#000000;stroke-width:0.26458332px;stroke-linecap:butt;stroke-linejoin:miter;stroke-opacity:1"
       id="path1047-3-5" />
    <path
       inkscape:connector-curvature="0"
       d="M 137.44975,83.005668 C 137.69521,83.182357 138.85291,84.526968 138.85291,84.676098 M 135.3116,83.673847 C 135.41897,84.886217 135.84751,85.839587 136.38067,86.546987 M 136.21158,82.813237 C 138.61498,80.673087 135.94352,79.053357 134.4542,79.495887 132.94593,81.151598 133.71403,83.808448 136.21158,82.813237 Z M 141.52561,80.065698 C 141.53372,79.026888 138.58079,75.172467 136.62274,76.488648 136.71526,77.093977 139.36426,78.955097 139.72155,82.070227 M 132.10436,86.680628 C 130.45868,86.012747 129.00479,82.408337 129.74564,81.027978 131.71504,79.825578 132.81189,84.923008 134.24252,84.809738 M 134.77706,90.088319 C 135.14092,89.213548 138.68072,92.536109 141.05789,91.023758 143.62363,90.116079 141.44441,83.126877 142.59469,80.600238 V 80.600238 M 139.922,94.765528 C 138.70244,93.534879 138.06414,92.211158 137.05385,91.543757 133.69632,88.495278 130.73287,90.785678 130.14416,90.217578 129.98596,88.322378 130.75812,87.288839 131.76067,87.097699 133.2912,86.022177 136.83792,88.102219 138.95637,87.251067 139.82319,85.514548 139.83893,79.925268 143.26166,79.533568 142.56266,81.545588 143.98387,88.381629 144.33195,90.355588 M 144.45372,101.40701 C 141.95256,98.515269 138.13074,97.424879 136.23689,96.642588 M 150.17813,99.046618 C 149.17084,95.100257 149.2298,86.437698 149.22983,86.437227 M 147.69221,101.44418 C 147.27715,99.95102 145.61293,97.806807 145.07209,97.445778 137.17384,91.993729 126.85213,103.89625 119.66694,103.60666 118.40001,103.55559 117.79233,103.60097 117.62157,101.32004 114.11232,96.229967 121.56236,81.894108 131.70118,87.145938 126.93427,84.840278 124.20501,85.445557 121.11785,85.539537 119.59772,84.828798 115.94977,82.331488 114.03079,79.397427 115.64902,78.094368 122.31316,71.302827 130.18928,81.098308 122.1426,75.374758 117.54854,69.214947 121.8738,60.262378 125.59828,60.162368 134.67354,60.405468 137.37082,75.428677 131.88442,63.119108 138.36993,64.307178 141.15059,61.916028 146.80246,70.361737 143.25198,70.157367 141.90655,77.554797 147.31074,66.556607 156.22011,72.016847 160.00215,76.326367 152.91261,84.387197 143.1421,87.855288 146.6785,96.926067 V 96.926067"
       style="fill:none;stroke:#000000;stroke-width:0.26458332px;stroke-linecap:butt;stroke-linejoin:miter;stroke-opacity:1"
       id="path1047-3-3" />
    <path
       inkscape:connector-curvature="0"
       d="M 49.570298,111.35388 C 49.815758,111.53057 50.973458,112.87518 50.973458,113.02431 M 47.432148,112.02206 C 47.539518,113.23443 47.968058,114.1878 48.501218,114.8952 M 48.332128,111.16145 C 50.735528,109.0213 48.064068,107.40157 46.574748,107.8441 45.066478,109.49981 45.834578,112.15666 48.332128,111.16145 Z M 53.646158,108.41391 C 53.654258,107.3751 50.701338,103.52068 48.743288,104.83686 48.835808,105.44219 51.484808,107.30331 51.842098,110.41844 M 44.224908,115.02884 C 42.579218,114.36096 41.125328,110.75655 41.866178,109.37619 43.835588,108.17379 44.932438,113.27122 46.363068,113.15795 M 46.897608,118.43653 C 47.261468,117.56176 50.801268,120.88432 53.178438,119.37197 55.744168,118.46429 53.564948,111.47509 54.715238,108.94845 V 108.94845 M 52.042548,123.11374 C 50.822988,121.88309 50.184688,120.55937 49.174398,119.89197 45.816868,116.84349 42.853408,119.13389 42.264698,118.56579 42.106498,116.67059 42.878668,115.63705 43.881218,115.44591 45.411748,114.37039 48.958468,116.45043 51.076918,115.59928 51.943738,113.86276 51.959478,108.27348 55.382198,107.88178 54.683208,109.8938 56.104408,116.72984 56.452488,118.7038 M 56.574258,129.75522 C 54.073108,126.86348 50.251288,125.77309 48.357438,124.9908 M 62.298678,127.39483 C 61.291378,123.44847 61.350338,114.78591 61.350368,114.78544 M 59.812748,129.79239 C 59.397688,128.29923 57.733478,126.15502 57.192628,125.79399 49.294388,120.34194 38.972668,132.24446 31.787488,131.95487 30.520548,131.9038 29.912868,131.94918 29.742108,129.66825 26.232858,124.57818 33.682898,110.24232 43.821728,115.49415 39.054808,113.18849 36.325548,113.79377 33.238388,113.88775 31.718268,113.17701 28.070308,110.6797 26.151338,107.74564 27.769558,106.44258 34.433698,99.651041 42.309818,109.44652 34.263138,103.72297 29.669078,97.563162 33.994338,88.610592 37.718818,88.510582 46.794088,88.753682 49.491368,103.77689 44.004968,91.467322 50.490478,92.655392 53.271128,90.264242 58.922998,98.709951 55.372518,98.505581 54.027088,105.90301 59.431278,94.904822 68.340648,100.36506 72.122688,104.67458 65.033148,112.73541 55.262648,116.2035 58.799038,125.27428 V 125.27428"
       style="fill:none;stroke:#000000;stroke-width:0.26458332px;stroke-linecap:butt;stroke-linejoin:miter;stroke-opacity:1"
       id="path1047-3-56" />
    <path
       inkscape:connector-curvature="0"
       d="M 108.53458,133.84346 C 108.78004,134.02015 109.93774,135.36476 109.93774,135.51389 M 106.39643,134.51164 C 106.5038,135.72401 106.93234,136.67738 107.4655,137.38478 M 107.29641,133.65103 C 109.69981,131.51088 107.02835,129.89115 105.53903,130.33368 104.03076,131.98939 104.79886,134.64624 107.29641,133.65103 Z M 112.61044,130.90349 C 112.61854,129.86468 109.66562,126.01026 107.70757,127.32644 107.80009,127.93177 110.44909,129.79289 110.80638,132.90802 M 103.18919,137.51842 C 101.5435,136.85054 100.08961,133.24613 100.83046,131.86577 102.79987,130.66337 103.89672,135.7608 105.32735,135.64753 M 105.86189,140.92611 C 106.22575,140.05134 109.76555,143.3739 112.14272,141.86155 114.70845,140.95387 112.52923,133.96467 113.67952,131.43803 V 131.43803 M 111.00683,145.60332 C 109.78727,144.37267 109.14897,143.04895 108.13868,142.38155 104.78115,139.33307 101.81769,141.62347 101.22898,141.05537 101.07078,139.16017 101.84295,138.12663 102.8455,137.93549 104.37603,136.85997 107.92275,138.94001 110.0412,138.08886 110.90802,136.35234 110.92376,130.76306 114.34648,130.37136 113.64749,132.38338 115.06869,139.21942 115.41677,141.19338 M 115.53854,152.2448 C 113.03739,149.35306 109.21557,148.26267 107.32172,147.48038 M 121.26296,149.88441 C 120.25567,145.93805 120.31463,137.27549 120.31465,137.27502 M 118.77703,152.28197 C 118.36197,150.78881 116.69776,148.6446 116.15691,148.28357 108.25867,142.83152 97.936957,154.73404 90.751769,154.44445 89.484835,154.39338 88.877154,154.43876 88.706393,152.15783 85.197141,147.06776 92.647188,132.7319 102.78601,137.98373 98.019095,135.67807 95.289837,136.28335 92.202674,136.37733 90.682549,135.66659 87.034591,133.16928 85.115619,130.23522 86.733845,128.93216 93.397984,122.14062 101.2741,131.9361 93.227421,126.21255 88.633368,120.05274 92.958627,111.10017 96.683102,111.00016 105.75837,111.24326 108.45565,126.26647 102.96925,113.9569 109.45476,115.14497 112.23541,112.75382 117.88729,121.19953 114.3368,120.99516 112.99137,128.39259 118.39557,117.3944 127.30494,122.85464 131.08698,127.16416 123.99743,135.22499 114.22693,138.69308 117.76333,147.76386 V 147.76386"
       style="fill:none;stroke:#000000;stroke-width:0.26458332px;stroke-linecap:butt;stroke-linejoin:miter;stroke-opacity:1"
       id="path1047-3-2" />
    <path
       inkscape:connector-curvature="0"
       d="M 179.97208,37.081565 C 180.21754,37.258255 181.37524,38.602865 181.37524,38.751995 M 177.83393,37.749745 C 177.9413,38.962115 178.36984,39.915485 178.903,40.622885 M 178.73391,36.889135 C 181.13731,34.748985 178.46585,33.129255 176.97653,33.571785 175.46826,35.227495 176.23636,37.884345 178.73391,36.889135 Z M 184.04794,34.141595 C 184.05604,33.102785 181.10312,29.248365 179.14507,30.564545 179.23759,31.169875 181.88659,33.030995 182.24388,36.146125 M 174.62669,40.756525 C 172.981,40.088645 171.52712,36.484235 172.26796,35.103875 174.23737,33.901475 175.33422,38.998905 176.76485,38.885635 M 177.29939,44.164215 C 177.66325,43.289445 181.20305,46.612005 183.58022,45.099655 186.14595,44.191975 183.96673,37.202775 185.11702,34.676135 V 34.676135 M 182.44433,48.841425 C 181.22477,47.610775 180.58647,46.287055 179.57618,45.619655 176.21865,42.571175 173.25519,44.861575 172.66648,44.293475 172.50828,42.398275 173.28045,41.364735 174.283,41.173595 175.81353,40.098075 179.36025,42.178115 181.4787,41.326965 182.34552,39.590445 182.36126,34.001165 185.78398,33.609465 185.08499,35.621485 186.50619,42.457525 186.85427,44.431485 M 186.97604,55.482905 C 184.47489,52.591165 180.65307,51.500775 178.75922,50.718485 M 192.70046,53.122515 C 191.69316,49.176155 191.75212,40.513595 191.75215,40.513125 M 190.21453,55.520075 C 189.79947,54.026915 188.13526,51.882705 187.59441,51.521675 179.69617,46.069625 169.37446,57.972145 162.18927,57.682555 160.92233,57.631485 160.31465,57.676865 160.14389,55.395935 156.63464,50.305865 164.08469,35.970005 174.22351,41.221835 169.45659,38.916175 166.72734,39.521455 163.64017,39.615435 162.12005,38.904695 158.47209,36.407385 156.55312,33.473325 158.17134,32.170265 164.83548,25.378725 172.7116,35.174205 164.66492,29.450655 160.07087,23.290845 164.39613,14.338275 168.1206,14.238265 177.19587,14.481365 179.89315,29.504575 174.40675,17.195005 180.89226,18.383075 183.67291,15.991925 189.32478,24.437635 185.7743,24.233265 184.42887,31.630695 189.83306,20.632505 198.74244,26.092745 202.52448,30.402265 195.43493,38.463095 185.66443,41.931185 189.20082,51.001965 V 51.001965"
       style="fill:none;stroke:#000000;stroke-width:0.26458332px;stroke-linecap:butt;stroke-linejoin:miter;stroke-opacity:1"
       id="path1047-3-9" />
    <path
       inkscape:connector-curvature="0"
       d="M 96.628328,198.66638 C 96.873788,198.84307 98.031488,200.18768 98.031488,200.33681 M 94.490178,199.33456 C 94.597548,200.54693 95.026088,201.5003 95.559248,202.2077 M 95.390158,198.47395 C 97.793558,196.3338 95.122098,194.71407 93.632778,195.1566 92.124508,196.81231 92.892608,199.46916 95.390158,198.47395 Z M 100.70419,195.72641 C 100.71229,194.6876 97.759368,190.83318 95.801318,192.14936 95.893838,192.75469 98.542838,194.61581 98.900128,197.73094 M 91.282938,202.34134 C 89.637248,201.67346 88.183368,198.06905 88.924208,196.68869 90.893618,195.48629 91.990468,200.58372 93.421098,200.47045 M 93.955638,205.74903 C 94.319498,204.87426 97.859298,208.19682 100.23647,206.68447 102.8022,205.77679 100.62298,198.78759 101.77327,196.26095 V 196.26095 M 99.100578,210.42624 C 97.881018,209.19559 97.242718,207.87187 96.232428,207.20447 92.874898,204.15599 89.911438,206.44639 89.322728,205.87829 89.164528,203.98309 89.936698,202.94955 90.939248,202.75841 92.469778,201.68289 96.016498,203.76293 98.134948,202.91178 99.001768,201.17526 99.017508,195.58598 102.44023,195.19428 101.74124,197.2063 103.16244,204.04234 103.51052,206.0163 M 103.63229,217.06772 C 101.13114,214.17598 97.309318,213.08559 95.415468,212.3033 M 109.35671,214.70733 C 108.34941,210.76097 108.40837,202.09841 108.4084,202.09794 M 106.87078,217.10489 C 106.45572,215.61173 104.79151,213.46752 104.25066,213.10649 96.352418,207.65444 86.030708,219.55696 78.845518,219.26737 77.578588,219.2163 76.970908,219.26168 76.800148,216.98075 73.290888,211.89068 80.740938,197.55482 90.879758,202.80665 86.112848,200.50099 83.383588,201.10627 80.296428,201.20025 78.776298,200.48951 75.128338,197.9922 73.209368,195.05814 74.827598,193.75508 81.491738,186.96354 89.367858,196.75902 81.321168,191.03547 76.727118,184.87566 81.052378,175.92309 84.776848,175.82308 93.852118,176.06618 96.549398,191.08939 91.062998,178.77982 97.548508,179.96789 100.32916,177.57674 105.98103,186.02245 102.43055,185.81808 101.08512,193.21551 106.48931,182.21732 115.39869,187.67756 119.18073,191.98708 112.09118,200.04791 102.32068,203.516 105.85707,212.58678 V 212.58678"
       style="fill:none;stroke:#000000;stroke-width:0.26458332px;stroke-linecap:butt;stroke-linejoin:miter;stroke-opacity:1"
       id="path1047-3-1" />
    <path
       inkscape:connector-curvature="0"
       d="M 43.333686,164.08156 C 43.579146,164.25825 44.736846,165.60286 44.736846,165.75199 M 41.195536,164.74974 C 41.302906,165.96211 41.731446,166.91548 42.264606,167.62288 M 42.095516,163.88913 C 44.498916,161.74898 41.827456,160.12925 40.338136,160.57178 38.829866,162.22749 39.597966,164.88434 42.095516,163.88913 Z M 47.409546,161.14159 C 47.417647,160.10278 44.464726,156.24836 42.506676,157.56454 42.599196,158.16987 45.248196,160.03099 45.605486,163.14612 M 37.988296,167.75652 C 36.342607,167.08864 34.888722,163.48423 35.629567,162.10387 37.598976,160.90147 38.695826,165.9989 40.126456,165.88563 M 40.660996,171.16421 C 41.024856,170.28944 44.564656,173.612 46.941826,172.09965 49.507557,171.19197 47.328337,164.20277 48.478626,161.67613 V 161.67613 M 45.805936,175.84142 C 44.586376,174.61077 43.948076,173.28705 42.937786,172.61965 39.580256,169.57117 36.616799,171.86157 36.028087,171.29347 35.869889,169.39827 36.642056,168.36473 37.644606,168.17359 39.175136,167.09807 42.721856,169.17811 44.840306,168.32696 45.707126,166.59044 45.722866,161.00116 49.145588,160.60946 48.446596,162.62148 49.867797,169.45752 50.215878,171.43148 M 50.337647,182.4829 C 47.836496,179.59116 44.014676,178.50077 42.120826,177.71848 M 56.062066,180.12251 C 55.054768,176.17615 55.113728,167.51359 55.113757,167.51312 M 53.576137,182.52007 C 53.161077,181.02691 51.496866,178.8827 50.956018,178.52167 43.057776,173.06962 32.736064,184.97214 25.550876,184.68255 24.283942,184.63148 23.676261,184.67686 23.5055,182.39593 19.996248,177.30586 27.446295,162.97 37.585116,168.22183 32.818202,165.91617 30.088944,166.52145 27.001781,166.61543 25.481656,165.90469 21.833698,163.40738 19.914726,160.47332 21.532952,159.17026 28.197091,152.37872 36.07321,162.1742 28.026528,156.45065 23.432475,150.29084 27.757734,141.33827 31.482209,141.23826 40.557476,141.48136 43.254756,156.50457 37.768356,144.195 44.253866,145.38307 47.034517,142.99192 52.686388,151.43763 49.135907,151.23326 47.790477,158.63069 53.194668,147.6325 62.104044,153.09274 65.886083,157.40226 58.796538,165.46309 49.026036,168.93118 52.562428,178.00196 V 178.00196"
       style="fill:none;stroke:#000000;stroke-width:0.26458332px;stroke-linecap:butt;stroke-linejoin:miter;stroke-opacity:1"
       id="path1047-3-27" />
    <path
       inkscape:connector-curvature="0"
       d="M 171.27863,148.77352 C 171.52409,148.95021 172.68179,150.29482 172.68179,150.44395 M 169.14048,149.4417 C 169.24785,150.65407 169.67639,151.60744 170.20955,152.31484 M 170.04046,148.58109 C 172.44386,146.44094 169.7724,144.82121 168.28308,145.26374 166.77481,146.91945 167.54291,149.5763 170.04046,148.58109 Z M 175.35449,145.83355 C 175.36259,144.79474 172.40967,140.94032 170.45162,142.2565 170.54414,142.86183 173.19314,144.72295 173.55043,147.83808 M 165.93324,152.44848 C 164.28755,151.7806 162.83366,148.17619 163.57451,146.79583 165.54392,145.59343 166.64077,150.69086 168.0714,150.57759 M 168.60594,155.85617 C 168.9698,154.9814 172.5096,158.30396 174.88677,156.79161 177.4525,155.88393 175.27328,148.89473 176.42357,146.36809 V 146.36809 M 173.75088,160.53338 C 172.53132,159.30273 171.89302,157.97901 170.88273,157.31161 167.5252,154.26313 164.56174,156.55353 163.97303,155.98543 163.81483,154.09023 164.587,153.05669 165.58955,152.86555 167.12008,151.79003 170.6668,153.87007 172.78525,153.01892 173.65207,151.2824 173.66781,145.69312 177.09053,145.30142 176.39154,147.31344 177.81274,154.14948 178.16082,156.12344 M 178.28259,167.17486 C 175.78144,164.28312 171.95962,163.19273 170.06577,162.41044 M 184.00701,164.81447 C 182.99971,160.86811 183.05867,152.20555 183.0587,152.20508 M 181.52108,167.21204 C 181.10602,165.71888 179.44181,163.57466 178.90096,163.21363 171.00272,157.76158 160.681,169.6641 153.49582,169.37451 152.22888,169.32344 151.6212,169.36882 151.45044,167.08789 147.94119,161.99782 155.39124,147.66196 165.53006,152.91379 160.76314,150.60813 158.03388,151.21341 154.94672,151.30739 153.4266,150.59665 149.77864,148.09934 147.85967,145.16528 149.47789,143.86222 156.14203,137.07068 164.01815,146.86616 155.97147,141.14261 151.37742,134.9828 155.70267,126.03023 159.42715,125.93022 168.50242,126.17332 171.1997,141.19653 165.7133,128.88696 172.19881,130.07503 174.97946,127.68388 180.63133,136.12959 177.08085,135.92522 175.73542,143.32265 181.13961,132.32446 190.04899,137.7847 193.83102,142.09422 186.74148,150.15505 176.97098,153.62314 180.50737,162.69392 V 162.69392"
       style="fill:none;stroke:#000000;stroke-width:0.26458332px;stroke-linecap:butt;stroke-linejoin:miter;stroke-opacity:1"
       id="path1047-3-0" />
    <path
       inkscape:connector-curvature="0"
       d="M 143.87536,262.54436 C 144.12082,262.72105 145.27852,264.06566 145.27852,264.21479 M 141.73721,263.21254 C 141.84458,264.42491 142.27312,265.37828 142.80628,266.08568 M 142.63719,262.35193 C 145.04059,260.21178 142.36913,258.59205 140.87981,259.03458 139.37154,260.69029 140.13964,263.34714 142.63719,262.35193 Z M 147.95122,259.60439 C 147.95932,258.56558 145.0064,254.71116 143.04835,256.02734 143.14087,256.63267 145.78987,258.49379 146.14716,261.60892 M 138.52997,266.21932 C 136.88428,265.55144 135.43039,261.94703 136.17124,260.56667 138.14065,259.36427 139.2375,264.4617 140.66813,264.34843 M 141.20267,269.62702 C 141.56653,268.75224 145.10633,272.07481 147.4835,270.56245 150.04923,269.65478 147.87001,262.66557 149.0203,260.13893 V 260.13893 M 146.34761,274.30422 C 145.12805,273.07358 144.48975,271.74985 143.47946,271.08245 140.12193,268.03397 137.15847,270.32437 136.56976,269.75627 136.41156,267.86107 137.18373,266.82754 138.18628,266.6364 139.71681,265.56087 143.26353,267.64092 145.38198,266.78976 146.2488,265.05324 146.26454,259.46396 149.68726,259.07226 148.98827,261.08428 150.40947,267.92033 150.75755,269.89428 M 150.87932,280.9457 C 148.37817,278.05397 144.55635,276.96358 142.6625,276.18128 M 156.60374,278.58531 C 155.59644,274.63895 155.6554,265.97639 155.65543,265.97592 M 154.11781,280.98288 C 153.70275,279.48972 152.03854,277.3455 151.49769,276.98447 143.59945,271.53243 133.27773,283.43494 126.09255,283.14536 124.82561,283.09429 124.21793,283.13966 124.04717,280.85873 120.53792,275.76866 127.98796,261.4328 138.12679,266.68463 133.35987,264.37897 130.63061,264.98425 127.54345,265.07823 126.02333,264.36749 122.37537,261.87018 120.4564,258.93612 122.07462,257.63306 128.73876,250.84152 136.61488,260.637 128.5682,254.91345 123.97414,248.75364 128.2994,239.80107 132.02388,239.70106 141.09915,239.94416 143.79643,254.96737 138.31003,242.6578 144.79554,243.84587 147.57619,241.45472 153.22806,249.90043 149.67758,249.69606 148.33215,257.09349 153.73634,246.0953 162.64571,251.55554 166.42775,255.86506 159.33821,263.92589 149.56771,267.39398 153.1041,276.46476 V 276.46476"
       style="fill:none;stroke:#000000;stroke-width:0.26458332px;stroke-linecap:butt;stroke-linejoin:miter;stroke-opacity:1"
       id="path1047-3-93" />
  </g>
  <WCB
     application="Axidraw"
     randseed="0"
     pausedposy="0"
     pausedposx="0"
     lastknownposy="0"
     lastknownposx="0"
     lastpathnc="0"
     lastpath="0"
     node="0"
     layer="0" />
</svg>
